<svg xmlns="http://www.w3.org/2000/svg" xmlns:xlink="http://www.w3.org/1999/xlink" viewBox="0 0 373.74 197.7"><defs><style>.cls-1{fill:none;}.cls-2,.cls-5{fill:#1e3480;}.cls-3,.cls-4{fill:#fff;}.cls-4,.cls-5{fill-rule:evenodd;}.cls-6{clip-path:url(#clip-path);}</style><clipPath id="clip-path"><path class="cls-1" d="M269,92.36a37.48,37.48,0,1,1,37.48,37.48A37.48,37.48,0,0,1,269,92.36Z"/></clipPath></defs><g id="Layer_2" data-name="Layer 2"><g id="Layer_1-2" data-name="Layer 1"><path class="cls-2" d="M5.27,91.2C6.64,51.9,90.24,22.92,192,26.47c53.81,1.88,90.55,9,115.34,18.17l-1.37.1C272.9,47.64,247.94,71,250.21,97c1.87,21.35,21.6,37.79,47,41.33-31.06,9.7-72.06,14.85-116.8,13.29-36.27-1.27-69.78-6.76-97.31-15.11,30.41,12.08,71.38,20.24,116.64,21.82,89.75,3.14,164.44-20.73,174.05-54.24-1.37,39.32-85,68.3-186.72,64.75S3.89,130.5,5.27,91.2Z"/><polygon class="cls-3" points="78.06 123.29 78.06 120.59 61.01 120.59 61.01 107.85 76.76 107.85 76.76 105.15 61.01 105.15 61.01 93.5 77.39 93.5 77.39 90.8 58.08 90.8 58.08 123.29 78.06 123.29 78.06 123.29"/><path class="cls-3" d="M100.86,107.63c-.23-4.82-4-7.61-8.64-7.61-6.71,0-10.08,5.85-10.08,12s3.15,12,9.9,12c5.13,0,8.1-2.56,8.82-7.74H97.93c-.22,3.11-2.65,5.27-6.16,5.27-4.14,0-6.71-4.37-6.71-9.54s2.57-9.45,6.71-9.45c3.73,0,5.94,1.66,6.16,5.13Z"/><path class="cls-4" d="M121.78,112c0,4.19-2.16,9.5-7.6,9.5s-7.61-5.31-7.61-9.5,2.16-9.49,7.61-9.49,7.6,5.31,7.6,9.49Zm-7.6-12c-7.2,0-10.53,6-10.53,12s3.33,12,10.53,12,10.53-6,10.53-12-3.33-12-10.53-12Z"/><path class="cls-3" d="M132.08,110.28c0-4,2-7.78,6.48-7.78,3.69,0,5.94,2.29,5.94,6.21v14.58h2.7V109.16c0-2.61-.58-9.14-8-9.14a7.78,7.78,0,0,0-7.07,4.1l-.09-.09L132,100.7h-2.79c.09,1.53.22,3.33.22,5.08v17.51h2.7v-13Z"/><path class="cls-4" d="M170,112c0,4.19-2.16,9.5-7.6,9.5s-7.61-5.31-7.61-9.5,2.16-9.49,7.61-9.49,7.6,5.31,7.6,9.49Zm-7.6-12c-7.2,0-10.53,6-10.53,12s3.33,12,10.53,12,10.53-6,10.53-12-3.33-12-10.53-12Z"/><path class="cls-3" d="M180.13,100.7h-2.79c.09,1.53.23,3.33.23,5.08v17.51h2.7v-13c0-4,2-7.78,6.48-7.78,3.69,0,5.94,2.29,5.94,6.21v14.58h2.7v-13c0-4,2-7.78,6.48-7.78,3.69,0,5.94,2.29,5.94,6.21v14.58h2.7V109.16c0-2.61-.59-9.14-8-9.14-3.51,0-6.12,2.3-7.78,5a7.42,7.42,0,0,0-7.34-5,7.77,7.77,0,0,0-7.06,4.1l-.09-.09-.14-3.33Z"/><polygon class="cls-3" points="212.57 100.7 221.93 123.29 218.51 131.93 221.48 131.93 233.94 100.7 231.02 100.7 223.46 119.6 215.85 100.7 212.57 100.7 212.57 100.7"/><path class="cls-4" d="M90.91,76.59V49.5H95.5c9.23-.27,14.85,4,14.85,13.54,0,8.19-3.73,13.55-12.87,13.55ZM88,46.8V79.29h8.77c10.67,0,16.74-5.49,16.74-16.25S107.43,46.8,96.76,46.8Z"/><path class="cls-4" d="M119.12,56.7V79.29h2.7V56.7Zm2.93-9.9H118.9v3.37h3.15V46.8Z"/><path class="cls-4" d="M143.73,67.5c0,4.41-2,9.22-7.15,9.22-5,0-7.07-5-7.07-9.13s2.07-9.09,7-9.09,7.24,4.68,7.24,9Zm0-7.47-.09.18A8.63,8.63,0,0,0,136.22,56c-6.89,0-9.63,5.67-9.63,11.79s2.92,11.39,9.72,11.39A8.27,8.27,0,0,0,143.64,75h.09V79.2a6.57,6.57,0,0,1-6.84,6.25c-2.88,0-6.07-.9-6.39-3.6h-2.92c0,4.68,4.86,6.08,9,6.08a10.24,10.24,0,0,0,5.13-1c5-2.34,4.77-7.06,4.77-11.56V61.78c0-1.75.14-3.55.23-5.08h-2.79L143.73,60Z"/><path class="cls-4" d="M152.32,56.7V79.29H155V56.7Zm2.93-9.9H152.1v3.37h3.15V46.8Z"/><path class="cls-3" d="M163.3,73.26c0,3.06-.32,6.7,5.4,6.7a11.41,11.41,0,0,0,2.74-.4V77.22a8.12,8.12,0,0,1-2.34.27,2.79,2.79,0,0,1-3.1-3.2V59.17h5.13V56.7H166v-6l-2.7,1.17V56.7h-4.5v2.47h4.5V73.26Z"/><path class="cls-4" d="M177.27,73c0-5.67,8-4.95,11.83-5.09.27,4.73-.85,9.59-6.75,9.59-2.74,0-5.08-1.44-5.08-4.5Zm11.83-7.56c-3.28.18-7.2-.27-10.21,1A7,7,0,0,0,174.34,73c0,4.41,3.33,7,7.52,7,3.06,0,6.07-1.8,7.06-3.69l.14-.31h.09l.09,3.33H192c-.09-1.53-.27-3.33-.23-5.09V63.49c.09-5.17-3-7.47-8-7.47-4.32,0-7.78,1.76-8.46,6.39h2.88c.36-3.06,2.7-3.91,5.54-3.91,3.19,0,5.08,1.17,5.35,4.86v2.07Z"/><polygon class="cls-3" points="200.67 46.8 197.97 46.8 197.97 79.29 200.67 79.29 200.67 46.8 200.67 46.8"/><path class="cls-5" d="M9.33,58.2,11,56.92,6.76,51.53,8.84,49.9c2-1.57,2.81-1.39,4.36.19a25.34,25.34,0,0,0,3,2.73L18,51.44a20.16,20.16,0,0,1-3.68-3.17c-1.33-1.36-2.24-1.48-3.62-.88a3.68,3.68,0,0,0,0-4.66,3.54,3.54,0,0,0-3.22-1.39,6.68,6.68,0,0,0-3.19,1.58L0,46.25l9.33,12ZM2.69,46.39l2.62-2c.66-.52,2.38-1.86,3.89.07a2.17,2.17,0,0,1,.41,2.19A4.94,4.94,0,0,1,8.24,48.1l-2.61,2L2.69,46.39Z"/><path class="cls-5" d="M24.12,41.84c-.87-1.48-3-5.08-7-2.58a5.12,5.12,0,0,0-2,2.19c-.8,1.86-.24,3.54.86,5.3,1.77,2.83,4.2,3.74,7,2a4.55,4.55,0,0,0,2.33-3.12,3.53,3.53,0,0,0-.4-2.35l-1.67,1a2.29,2.29,0,0,1-.95,3.16c-1.83,1.15-3.45.25-4.57-1.62l6.42-4ZM17,44.64a2.83,2.83,0,0,1,.79-4.16c2.07-1.29,3.34.39,3.86,1.26L17,44.64Z"/><path class="cls-2" d="M26.18,42.72c1.17,2.25,3.35,2.09,5.24,1.09a6.05,6.05,0,0,0,2.43-2.1,3.18,3.18,0,0,0,0-3,2.61,2.61,0,0,0-1.62-1.35c-.83-.22-1.46-.07-4.37.68-.55.13-1.49.37-1.94-.48-.71-1.34.92-2.2,1.18-2.34.63-.34,1.91-.88,2.6.56l1.78-.94a3.24,3.24,0,0,0-1-1.23c-1.14-.82-2.95-.28-4.12.34-2.15,1.14-3,3-2.14,4.75,1,1.95,2.88,1.47,5.06.88,1.56-.43,2.3-.61,2.78.3a1.69,1.69,0,0,1,.17,1A2.17,2.17,0,0,1,31,42.34c-1.69.9-2.58.12-2.94-.6l-1.83,1Z"/><path class="cls-5" d="M43,32.57C42.37,31,40.76,27.12,36.45,29a5.07,5.07,0,0,0-2.31,1.88c-1,1.73-.73,3.48.11,5.38,1.36,3.05,3.64,4.28,6.67,2.94a4.53,4.53,0,0,0,2.74-2.77,3.54,3.54,0,0,0-.07-2.38l-1.8.8a2.3,2.3,0,0,1-1.38,3c-2,.88-3.45-.23-4.3-2.25L43,32.57Zm-7.41,1.78a2.83,2.83,0,0,1,1.36-4c2.23-1,3.25.85,3.65,1.78l-5,2.23Z"/><path class="cls-5" d="M54.65,33.33a26.34,26.34,0,0,1-1.11-2.41l-1.72-4.74a3.2,3.2,0,0,0-.92-1.38c-.91-.8-2.61-.66-4-.11A4.76,4.76,0,0,0,44.09,27a3.33,3.33,0,0,0,0,2.12l1.84-.7c-.13-.4-.52-1.72,1.34-2.43a2.41,2.41,0,0,1,2,0c.52.3.73.83,1.19,2-.58.18-.88.27-1.35.46a8.27,8.27,0,0,0-3.17,1.95A3.5,3.5,0,0,0,45.3,34c.63,1.62,2.33,2.43,4.59,1.57a3.43,3.43,0,0,0,2.35-3A6.26,6.26,0,0,0,53,34l1.67-.64Zm-3.72-4.06A4.88,4.88,0,0,1,51.45,32a2.52,2.52,0,0,1-1.69,1.86A1.89,1.89,0,0,1,47.07,33c-.77-2,2-3.08,2.78-3.37a9.18,9.18,0,0,1,1.08-.34Z"/><path class="cls-2" d="M57.32,32.47l1.9-.62-1.73-5.33c-.56-1.72-.47-3.21,1.75-3.93a3.86,3.86,0,0,1,.54-.15,1.43,1.43,0,0,1,.39,0l-.6-1.84a6.31,6.31,0,0,0-1.28.47,2.85,2.85,0,0,0-1.76,2.75l-.67-1.92L54,22.47c.27.64.54,1.33.76,2l2.59,8Z"/><path class="cls-2" d="M70.11,21.1a3.62,3.62,0,0,0-1.5-2,4.24,4.24,0,0,0-3.46-.36c-2,.58-4.25,2.57-3,6.79a5.76,5.76,0,0,0,2.32,3.53,4.76,4.76,0,0,0,3.71.35,4,4,0,0,0,3.06-4.81l-1.92.55A2.21,2.21,0,0,1,67.71,28c-2,.57-3.08-1.22-3.68-3.3-.22-.77-1.09-3.81,1.54-4.57a2.08,2.08,0,0,1,2.62,1.55l1.92-.56Z"/><path class="cls-2" d="M72.83,27.82l1.94-.49-1.35-5.42a4.88,4.88,0,0,1-.21-2.24,2.7,2.7,0,0,1,2.06-2c2.2-.55,2.69,1.42,2.92,2.34L79.7,26.1l2-.48-1.6-6.4a5,5,0,0,0-.94-2.3,3.6,3.6,0,0,0-3.62-.83,3.85,3.85,0,0,0-2.9,2.52l-1.49-5.95-1.93.48,3.65,14.68Z"/><path class="cls-2" d="M98.94,10.81C98,7.49,94.88,7.22,92.78,7.63c-5.3,1-5.61,5.94-5,9.08.56,2.88,2.47,7.3,7.71,6.28,2.55-.49,5-2.23,4.76-5.22L98,18.21a3,3,0,0,1-.42,1.71,3.26,3.26,0,0,1-2.24,1.35c-3.4.66-4.79-2.21-5.34-5-.48-2.48-.55-6.27,3-7,2.87-.56,3.54,1.45,3.72,2l2.21-.43Z"/><path class="cls-5" d="M101.42,16.52c.48,3.05,2.54,5.17,6,4.62s4.87-3.36,4.38-6.41c-.34-2.18-1.79-5.31-6-4.65S101,14,101.42,16.52Zm2-.45c-.52-3.26,1.37-4.36,2.62-4.56,1.82-.29,3.24.89,3.65,3.48.5,3.13-1,4.46-2.49,4.69-2.22.35-3.44-1.47-3.78-3.61Z"/><path class="cls-2" d="M113.54,9.27l.86,7c.25,2.06,1.64,3.4,4.23,3.08a3.31,3.31,0,0,0,3.1-2.31l.26,1.79,2-.25c-.09-.58-.27-1.74-.3-2l-1-8.51-2,.25.73,5.92a3.44,3.44,0,0,1-.2,2,2.82,2.82,0,0,1-2.31,1.47c-2,.25-2.39-1-2.52-2L115.54,9l-2,.25Z"/><path class="cls-2" d="M127.29,18.27l2-.21-.63-6c-.22-2.11,1-3.27,2.4-3.42a2.75,2.75,0,0,1,1.94.51,2.38,2.38,0,0,1,.75,1.74l.7,6.66,2-.21-.75-7.12A3.52,3.52,0,0,0,131.49,7a3.43,3.43,0,0,0-3.16,2.25l-.2-1.69-2,.21L126.31,9l1,9.27Z"/><path class="cls-2" d="M146.84,9.49a3.63,3.63,0,0,0-1-2.29,4.3,4.3,0,0,0-3.32-1.07c-2.09.14-4.68,1.63-4.38,6a5.68,5.68,0,0,0,1.54,3.93,4.74,4.74,0,0,0,3.55,1.12,4,4,0,0,0,4-4.07l-2,.14a2.2,2.2,0,0,1-2.12,2.45c-2.1.14-2.76-1.83-2.91-4-.06-.8-.28-4,2.44-4.15a2.08,2.08,0,0,1,2.25,2l2-.13Z"/><path class="cls-5" d="M148.41,3.55l2.37-.12-.11-2.16-2.37.12.11,2.16Zm.89,12.93,2-.11-.55-10.52-2,.1.55,10.53Z"/><polygon class="cls-2" points="154.7 16.16 156.67 16.05 155.88 0.96 153.91 1.06 154.7 16.16 154.7 16.16"/><path class="cls-2" d="M158.88,12.81c.07,2.54,2.1,3.35,4.24,3.28a5.93,5.93,0,0,0,3.1-.83,3.19,3.19,0,0,0,1.33-2.71,2.61,2.61,0,0,0-.86-1.92c-.65-.57-1.29-.72-4.23-1.31C161.91,9.2,161,9,160.92,8c0-1.51,1.8-1.57,2.09-1.58.71,0,2.1,0,2.1,1.65l2-.07a3.34,3.34,0,0,0-.32-1.53c-.68-1.23-2.54-1.55-3.86-1.5-2.44.08-4.07,1.4-4,3.33.07,2.21,1.94,2.58,4.16,3,1.58.3,2.33.46,2.36,1.49a1.66,1.66,0,0,1-.3,1,2.15,2.15,0,0,1-1.82.74c-1.91.06-2.37-1-2.38-1.83l-2.08.07Z"/><path class="cls-2" d="M175.14.22l.16,9.23c0,2.27.48,3.15.95,3.81a6.51,6.51,0,0,0,5.4,2.32,6.21,6.21,0,0,0,4.85-2.18,6.11,6.11,0,0,0,1.17-4.06L187.51,0l-2,0,.16,9.3c0,1.09.08,4.3-4,4.37a4.13,4.13,0,0,1-3.49-1.43,4.13,4.13,0,0,1-.72-2.71L177.24.18l-2.1,0Z"/><polygon class="cls-2" points="191.2 15.17 193.28 15.17 193.28 7.12 200.27 15.17 203.21 15.17 195.69 6.79 202.48 0 199.6 0 193.28 6.64 193.28 0 191.2 0 191.2 15.17 191.2 15.17"/><polygon class="cls-2" points="14.58 152.08 22.77 139.94 27.39 143.05 28.48 141.43 17.36 133.93 16.27 135.55 20.89 138.66 12.69 150.81 14.58 152.08 14.58 152.08"/><path class="cls-5" d="M19.53,155.43l1.89,1.09,3.07-5.32c1-1.71,2.26-2.73,4.47-1.45a5.81,5.81,0,0,1,.53.33,1.46,1.46,0,0,1,.31.29l1.06-1.83a6.37,6.37,0,0,0-1.32-.71,3.09,3.09,0,0,0-3.52.59l1.07-1.95-1.89-1.1c-.32.69-.68,1.41-1.07,2.09l-4.6,8Z"/><path class="cls-5" d="M35.26,164.13a28.91,28.91,0,0,1,1.15-2.67L39,156.59a3.47,3.47,0,0,0,.46-1.76c0-1.33-1.38-2.61-2.88-3.37a5.18,5.18,0,0,0-3.88-.59A3.69,3.69,0,0,0,31,152.45l1.93,1c.23-.4,1-1.68,2.95-.68a2.62,2.62,0,0,1,1.44,1.58c.14.64-.14,1.19-.79,2.46-.57-.34-.87-.52-1.36-.77a9.13,9.13,0,0,0-3.91-1.14,3.81,3.81,0,0,0-3.34,2.1c-.87,1.7-.27,3.68,2.08,4.88a3.74,3.74,0,0,0,4.13-.25,6.39,6.39,0,0,0-.6,1.63l1.74.89Zm.58-6c-.77,1.41-1.08,2-1.87,2.45a2.75,2.75,0,0,1-2.75,0c-1.73-.88-1.56-2.21-1.23-2.87,1.07-2.09,4-.6,4.78-.2a8.68,8.68,0,0,1,1.07.63Z"/><path class="cls-2" d="M38.86,165.9l2,.88,2.7-6.07c1-2.13,2.73-2.57,4.16-1.93a3,3,0,0,1,1.55,1.55,2.6,2.6,0,0,1-.24,2.06l-3,6.7,2,.9,3.19-7.17C52.68,159.59,50,158,49,157.53a3.76,3.76,0,0,0-4.23.4l.73-1.71-2-.88L43,156.57l-4.16,9.33Z"/><path class="cls-2" d="M52.1,167.88c-1,2.59.68,4.28,2.87,5.12a6.45,6.45,0,0,0,3.48.49A3.5,3.5,0,0,0,61,171.33a2.91,2.91,0,0,0-.05-2.31c-.42-.85-1-1.27-3.71-3.12-.5-.37-1.37-1-1-2,.6-1.55,2.49-.82,2.79-.71.73.28,2.1,1,1.41,2.56l2.06.79a3.66,3.66,0,0,0,.32-1.67c-.15-1.54-1.89-2.65-3.24-3.17-2.5-1-4.71-.33-5.47,1.65-.86,2.25.86,3.43,2.91,4.81,1.47,1,2.15,1.47,1.75,2.52a1.82,1.82,0,0,1-.74.88,2.36,2.36,0,0,1-2.15,0c-2-.75-2-2.05-1.61-2.86l-2.13-.82Z"/><path class="cls-2" d="M73.44,161.41a11.7,11.7,0,0,0-1.63-.7,3.22,3.22,0,0,0-3.15.3c-.55.45-.82,1-1.31,2.48l-.4,1.25L64.78,164l-.48,1.49,2.16.7-3.08,9.5,2,.66,3.09-9.5,2.56.84.48-1.49L69,165.4l.56-1.73c.25-.77.52-1.6,2.18-1.06.42.14.85.3,1.19.44l.53-1.64Z"/><path class="cls-5" d="M70.8,172.29c-1,3.23,0,6.3,3.67,7.42s6.41-1,7.4-4.21c.7-2.31.78-6.09-3.64-7.44s-6.59,1.5-7.43,4.23Zm2.2.52c1-3.45,3.44-3.63,4.76-3.23,1.94.59,2.77,2.43,1.93,5.18-1,3.32-3.14,3.9-4.7,3.42-2.36-.72-2.69-3.1-2-5.37Z"/><path class="cls-2" d="M83.57,182l2.11.57,1.59-5.93c.51-1.91,1.48-3.22,4-2.56a4.78,4.78,0,0,1,.59.18,1.5,1.5,0,0,1,.38.2l.54-2.05a6.76,6.76,0,0,0-1.45-.34A3.13,3.13,0,0,0,88,173.52l.54-2.16-2.11-.57c-.13.75-.3,1.54-.5,2.3L83.57,182Z"/><path class="cls-2" d="M92.11,184.27l2.13.49,1.48-6.38a4,4,0,0,1,1-2.18,3.13,3.13,0,0,1,2.75-.66,2.34,2.34,0,0,1,1.89,3L99.67,186l2.12.49,1.46-6.3a4.77,4.77,0,0,1,1-2.31,3,3,0,0,1,2.67-.63,2.6,2.6,0,0,1,1.93,1.48,2.88,2.88,0,0,1,0,1.79l-1.66,7.22,2.13.49,1.74-7.55c.77-3.32-1.59-4.57-3.2-4.94a4.14,4.14,0,0,0-4.28,1.23,3.67,3.67,0,0,0-3.18-3,3.94,3.94,0,0,0-4,1.11l.37-1.64L94.67,173l-.31,1.51-2.25,9.75Z"/><path class="cls-5" d="M115.88,174.93l2.55.5.45-2.33-2.55-.49-.45,2.32Zm-2.48,14,2.12.41,2.2-11.34-2.12-.41-2.2,11.34Z"/><path class="cls-2" d="M119.73,190.12l2.14.33,1-6.56c.36-2.3,2-3.18,3.51-2.94a3,3,0,0,1,1.9,1.1,2.64,2.64,0,0,1,.31,2l-1.15,7.24,2.18.35,1.23-7.75c.55-3.5-2.5-4.38-3.52-4.54a3.78,3.78,0,0,0-4,1.49l.27-1.84-2.14-.34-.18,1.32-1.6,10.09Z"/><path class="cls-5" d="M133.05,193.22c-.12,1.56-.29,3.72,4.29,4.36,1.57.23,3.84.31,5-1.38.58-.8.82-1.9,1.21-4.66l1-7.15.33-2.06-2.07-.29-.24,1.56a4,4,0,0,0-3.36-2.23c-2.8-.4-5.34,1.17-5.89,5a6.46,6.46,0,0,0,.71,4.39,4.45,4.45,0,0,0,3.31,1.91c.68.09,2.85.35,4-1.41-.44,3.1-.79,5.25-3.77,4.84-2-.29-2.44-1.32-2.35-2.61l-2.28-.32Zm5.14-2c-2.62-.37-2.82-2.76-2.57-4.52.21-1.46.95-4.14,3.66-3.76a3.43,3.43,0,0,1,2.32,1.35,3.82,3.82,0,0,1,.49,3c-.29,2.08-.7,2.65-1.23,3.17a2.91,2.91,0,0,1-2.67.79Z"/><path class="cls-5" d="M153.75,194.9l6,.53a6.5,6.5,0,0,0,3.8-.43,4.45,4.45,0,0,0,2.33-3.59A4,4,0,0,0,163,187a3.71,3.71,0,0,0,3.12-3.49,4,4,0,0,0-.91-3.06c-.94-1.09-2-1.4-4.06-1.58l-5.92-.51-1.44,16.54Zm3.5-14.47,3.3.29c1.26.11,3.35.29,3.13,2.79s-2.89,2.38-3.67,2.31l-3.2-.28.44-5.11Zm-.62,7.08,4,.35c2,.18,3.06,1.49,2.91,3.14-.16,1.9-1.69,2.74-3.5,2.58l-3.92-.34.5-5.73Z"/><path class="cls-2" d="M169.25,184.67l-.41,7.74c-.11,2.28,1.13,4,4,4.12a3.63,3.63,0,0,0,3.79-1.89l-.06,2,2.25.12c0-.64,0-1.93,0-2.16l.49-9.37-2.22-.12-.35,6.53a3.7,3.7,0,0,1-.59,2.13,3.1,3.1,0,0,1-2.78,1.14c-2.2-.11-2.38-1.55-2.32-2.67l.39-7.42-2.21-.12Z"/><path class="cls-2" d="M181.79,193.54c-.17,2.78,2,3.86,4.31,4a6.48,6.48,0,0,0,3.46-.6,3.52,3.52,0,0,0,1.72-2.84,2.86,2.86,0,0,0-.76-2.18c-.66-.68-1.34-.9-4.49-1.82-.59-.19-1.61-.5-1.56-1.56.09-1.65,2.11-1.55,2.43-1.53.79,0,2.29.26,2.13,2l2.21.12a3.82,3.82,0,0,0-.21-1.7c-.62-1.41-2.62-1.93-4.07-2-2.66-.13-4.57,1.15-4.68,3.26-.13,2.41,1.87,3,4.25,3.68,1.7.48,2.5.73,2.44,1.85a1.76,1.76,0,0,1-.43,1.06,2.35,2.35,0,0,1-2.06.63c-2.09-.11-2.48-1.35-2.41-2.22l-2.28-.12Z"/><path class="cls-5" d="M194.2,183.22l2.6,0,0-2.36-2.59-.05-.05,2.37Zm0,14.19,2.16,0,.2-11.55-2.16,0-.2,11.54Z"/><path class="cls-2" d="M200.52,197.52h2.16v-6.65c0-2.32,1.45-3.45,3-3.45a3,3,0,0,1,2.05.78,2.6,2.6,0,0,1,.62,2v7.34h2.21v-7.85c0-3.54-3.15-3.93-4.19-3.93a3.77,3.77,0,0,0-3.7,2.09l0-1.86H200.5l0,1.34v10.21Z"/><path class="cls-5" d="M223.93,191.74c0-1.88-.06-6.46-5.24-6.28a5.55,5.55,0,0,0-3.12,1c-1.77,1.33-2.16,3.23-2.08,5.5.13,3.66,1.93,5.85,5.56,5.72A5,5,0,0,0,223,196a3.9,3.9,0,0,0,.91-2.44l-2.16.07a2.52,2.52,0,0,1-2.63,2.49c-2.37.08-3.42-1.66-3.46-4.05l8.3-.29Zm-8.26-1.23a3.1,3.1,0,0,1,3-3.51c2.67-.09,3,2.2,3,3.3l-6,.21Z"/><path class="cls-2" d="M226,193.74c.12,2.78,2.35,3.63,4.7,3.51a6.52,6.52,0,0,0,3.38-1,3.51,3.51,0,0,0,1.41-3,2.84,2.84,0,0,0-1-2.09c-.72-.61-1.42-.76-4.65-1.35-.61-.13-1.65-.33-1.71-1.38-.09-1.66,1.93-1.76,2.26-1.78.78,0,2.3,0,2.32,1.77l2.21-.12a3.78,3.78,0,0,0-.39-1.66c-.76-1.34-2.8-1.65-4.25-1.57-2.66.13-4.43,1.61-4.32,3.72.13,2.41,2.17,2.79,4.61,3.22,1.75.3,2.56.46,2.62,1.59a1.81,1.81,0,0,1-.31,1.09,2.37,2.37,0,0,1-2,.85c-2.09.11-2.62-1.09-2.64-2l-2.27.12Z"/><path class="cls-2" d="M237.29,193.07c.18,2.78,2.42,3.59,4.76,3.43a6.47,6.47,0,0,0,3.37-1,3.5,3.5,0,0,0,1.35-3,2.85,2.85,0,0,0-1-2.08c-.73-.59-1.43-.73-4.67-1.26-.61-.12-1.66-.3-1.74-1.35-.11-1.66,1.91-1.8,2.23-1.82.78-.06,2.3,0,2.36,1.73l2.2-.16a3.53,3.53,0,0,0-.42-1.65c-.78-1.33-2.83-1.6-4.27-1.5-2.67.18-4.41,1.69-4.26,3.8.17,2.41,2.22,2.75,4.67,3.13,1.75.27,2.57.42,2.65,1.55a1.83,1.83,0,0,1-.3,1.1,2.35,2.35,0,0,1-2,.88c-2.09.14-2.64-1-2.67-1.92l-2.28.16Z"/><path class="cls-5" d="M265.23,193.73a26.24,26.24,0,0,1-.53-2.85l-.58-5.49a3.45,3.45,0,0,0-.61-1.71c-.76-1.09-2.6-1.4-4.27-1.19a5.21,5.21,0,0,0-3.54,1.68,3.71,3.71,0,0,0-.54,2.27l2.15-.26c0-.46-.1-2,2.07-2.23a2.68,2.68,0,0,1,2.07.51c.48.45.55,1.07.73,2.49-.67,0-1,.05-1.56.12a8.87,8.87,0,0,0-3.88,1.24,3.81,3.81,0,0,0-1.6,3.6c.23,1.9,1.83,3.21,4.45,2.88a3.73,3.73,0,0,0,3.29-2.51,6.06,6.06,0,0,0,.41,1.69l1.94-.24Zm-2.87-5.3c.15,1.6.21,2.25-.18,3.08a2.76,2.76,0,0,1-2.29,1.53c-1.92.24-2.53-1-2.62-1.69-.28-2.33,3-2.73,3.85-2.84a9.82,9.82,0,0,1,1.24-.08Z"/><path class="cls-2" d="M269.07,193.2l2.13-.34-1-6.57c-.36-2.29.89-3.63,2.44-3.87a2.9,2.9,0,0,1,2.14.45,2.58,2.58,0,0,1,.93,1.85l1.14,7.25,2.18-.34-1.22-7.75c-.56-3.5-3.73-3.39-4.75-3.23a3.76,3.76,0,0,0-3.33,2.65l-.32-1.84-2.13.34.23,1.31,1.6,10.09Z"/><path class="cls-5" d="M288.84,179.58a3.7,3.7,0,0,0-3.89-1.23c-2.67.51-4.76,2.87-3.92,7.18,1,5,4.48,5.1,6,4.81a5.25,5.25,0,0,0,2.64-1.38,3.23,3.23,0,0,0,.78-1.4l.4,1.8L293,189c-.16-.58-.39-1.54-.44-1.79l-2.81-14.45-2.12.41,1.25,6.46Zm.84,4c.17.88.89,4.56-2.45,5.21-2.6.51-3.57-1.72-4-3.73-.15-.77-.88-4.54,2.23-5.14a3.14,3.14,0,0,1,2.71.67,4.94,4.94,0,0,1,1.47,3Z"/><path class="cls-2" d="M301,182.09a5.13,5.13,0,0,0,1.86,3c1.72,1.26,4.25.74,5.47.4,4.09-1.18,5.68-4,4.87-6.78a3.79,3.79,0,0,0-2.5-2.73c-1.11-.36-1.55-.32-5.63-.21-2.08.1-3.15-.12-3.56-1.54-.45-1.59.59-3,2.8-3.6,1.57-.45,3.38-.49,4.06,1.47l2.3-.66A4.27,4.27,0,0,0,308.9,169c-1.68-1-3.87-.59-4.94-.28-3,.86-5.67,3.16-4.74,6.41a3.76,3.76,0,0,0,2.56,2.66c1,.32,2.14.27,4.74.17,2.39-.09,3.93-.14,4.44,1.65.23.79.4,3-2.91,3.92-3.68,1-4.4-1-4.76-2.06l-2.3.66Z"/><path class="cls-5" d="M314.8,177.24c1.1,3.2,3.72,5.1,7.33,3.85s4.61-4.55,3.51-7.75c-.79-2.28-2.95-5.38-7.32-3.88s-4.45,5.09-3.52,7.78Zm2.08-.86c-1.17-3.41.65-5,2-5.42,1.91-.66,3.67.35,4.6,3.06,1.13,3.29-.25,5-1.79,5.54-2.33.8-4-.94-4.77-3.18Z"/><path class="cls-2" d="M336,166.87a3.94,3.94,0,0,0-1.86-2,4.7,4.7,0,0,0-3.82,0c-2.13.86-4.33,3.29-2.52,7.74a6.24,6.24,0,0,0,2.93,3.58,5.23,5.23,0,0,0,4.08,0,4.38,4.38,0,0,0,2.78-5.59l-2,.82a2.4,2.4,0,0,1-1.39,3.26c-2.13.86-3.49-1-4.38-3.17-.32-.81-1.62-4,1.15-5.15a2.29,2.29,0,0,1,3,1.38l2-.82Z"/><path class="cls-5" d="M335.11,160l2.34-1.14-1-2.13-2.34,1.14,1,2.13Zm6.43,12.65,1.94-1-5.06-10.37-1.94.94,5.06,10.38Z"/><path class="cls-5" d="M353,160c-.93-1.64-3.19-5.62-7.63-3a5.62,5.62,0,0,0-2.26,2.35c-.91,2-.33,3.88.84,5.83,1.89,3.13,4.53,4.18,7.64,2.31a5,5,0,0,0,2.62-3.37,3.88,3.88,0,0,0-.4-2.58L352,162.64a2.51,2.51,0,0,1-1.1,3.45c-2,1.22-3.79.21-5-1.86L353,160Zm-7.82,2.93a3.09,3.09,0,0,1,1-4.54c2.28-1.38,3.65.49,4.19,1.45l-5.14,3.09Z"/><path class="cls-2" d="M351.41,155.4l1.65-1.2,4.53,6.23c1.11,1.53,2.21,1.44,3.81.28a11.68,11.68,0,0,0,1.37-1.17l-1-1.36a4,4,0,0,1-.77.7c-1.24.91-1.81.13-2.15-.34l-4.07-5.6,2.09-1.51-.94-1.29-2.08,1.52L352,149.14,350.71,151l1.42,1.95-1.66,1.21.94,1.28Z"/><polygon class="cls-2" points="364.69 141.88 363.04 143.54 366.87 152.59 357.88 148.7 356.16 150.42 367.69 155.16 369.57 159.51 371.15 157.94 369.28 153.72 364.69 141.88 364.69 141.88"/><path class="cls-2" d="M269,92.36a37.48,37.48,0,1,1,37.48,37.48A37.48,37.48,0,0,1,269,92.36Z"/><g class="cls-6"><path class="cls-4" d="M269.9,124c0,2.24.75,4.3,2.9,4.3,2.52,0,3-2.56,3-4.5a5,5,0,0,0-.76-3,2.56,2.56,0,0,0-2.19-1.11c-2.69,0-2.92,3.22-2.92,4.34Zm4.07.1c0,1.15-.16,2.78-1.12,2.78s-1.12-1.33-1.12-2.76a8.83,8.83,0,0,1,.28-2.34.92.92,0,0,1,.83-.72c.66,0,.86.74.91,1a9.23,9.23,0,0,1,.22,2.07Z"/><path class="cls-4" d="M276.58,124c0,1.84.63,4.31,2.9,4.3s3-2.56,3-4.5a5.34,5.34,0,0,0-.76-3l-.15-.2c-.18-.17-.36-.32-.54-.48a2.65,2.65,0,0,0-1.5-.43c-2.25.09-2.93,2.44-2.92,4.34Zm4.06.1c0,1.15-.15,2.78-1.11,2.78s-1.12-1.33-1.12-2.76a8.83,8.83,0,0,1,.28-2.34.92.92,0,0,1,.83-.72c.66,0,.86.74.91,1a9.83,9.83,0,0,1,.21,2.07Z"/><path class="cls-4" d="M283.26,124c0,1.86.63,4.28,2.9,4.3,1.61,0,2.5-1.26,2.81-2.7a2.61,2.61,0,0,0-.53-.52,21.61,21.61,0,0,0-1.81-1.51,17.06,17.06,0,0,0-2.24-1.44c-.36-.19-1.46-.71-.91,0a7.82,7.82,0,0,0-.22,1.86Zm3.83.49a1.07,1.07,0,0,1,.22.2c0,.69-.13,2.2-1.1,2.19-1.17,0-1.12-2-1.12-2.76a4.35,4.35,0,0,0,0-.8c0-.17-.36-.37-.46-.53s.24,0,.32,0a6.72,6.72,0,0,1,1.12.8l1,.88Z"/><path class="cls-3" d="M288.55,125a6.81,6.81,0,0,0,1.4.28,21,21,0,0,0,1.73,1.67v1.31h1.82v-.61a12.68,12.68,0,0,1-2.36-2.6c-.53-.16-1.05-.33-1.58-.52a6.4,6.4,0,0,1-1.63-.22c.2.24.41.47.62.69Z"/><path class="cls-3" d="M293.6,126.69a8.38,8.38,0,0,0,1.8.11,6.69,6.69,0,0,0,1.49,1.77c.58.13,1.17.25,1.76.35a7.44,7.44,0,0,1-1.59-2.52c-.6-.1-1.21-.22-1.81-.34a10.72,10.72,0,0,1-2.12,0c.15.22.3.44.47.65Z"/><path class="cls-4" d="M299.27,128.22c.63,1.09,2.48,1.17,3.59,1.25.76.05,3.05.35,3-.83,0-.53-.52-.85-.95-1.07a7.41,7.41,0,0,0-2.79-.62c-.75,0-3.65,0-2.89,1.27Zm4.57.46c.11.6-.62.59-1,.56s-1.24-.17-1.48-.74a.76.76,0,0,1,.05-.73,1.13,1.13,0,0,1,.93-.2,1.66,1.66,0,0,1,1.17.44,1.24,1.24,0,0,1,.37.67Z"/><path class="cls-4" d="M306.84,128.69c0,1.1,2.24.79,2.9.74,1.19-.11,3.06-.21,3.74-1.37.25-.42,0-.76-.35-1a5.12,5.12,0,0,0-2.52-.2c-1.07.1-3.71.34-3.77,1.79Zm4.6-.27a1.73,1.73,0,0,1-1.52.77c-.42,0-1.14.06-1-.54a1.49,1.49,0,0,1,.49-.78,2,2,0,0,1,1.07-.36c.29,0,.84-.06,1,.27a.72.72,0,0,1,0,.64Z"/><path class="cls-3" d="M314.34,127.61a20.57,20.57,0,0,0,2.4-.82,6.85,6.85,0,0,1-1.49,1.77,15,15,0,0,1,1.47-.35H317v-.07a10.77,10.77,0,0,0,2.25-2.65c-.57.15-1.14.3-1.72.42a23.66,23.66,0,0,1-2.84,1.07c-.1.21-.2.42-.32.63Z"/><path class="cls-4" d="M319.29,126.78c-.18.18-.57.55-.16.63a2.48,2.48,0,0,0,2,.93c1.83,0,2.65-1.55,2.89-3.18a6.33,6.33,0,0,1,.56-.47c.18-.17.8-.66.55-.94s-1.23.17-1.57.3a11.79,11.79,0,0,0-4.27,2.73Zm3.68-1.32c-.29.28-.64.47-1,.72a1,1,0,0,1-.84.74.72.72,0,0,1-.47-.15c-.36,0,.14-.4.27-.52a13.63,13.63,0,0,1,1-1,4.41,4.41,0,0,1,1-.6c.14,0,.63-.2.48.08a2.07,2.07,0,0,1-.57.68Z"/><path class="cls-3" d="M325.49,124.05c.66-.39,1.31-.8,1.94-1.25-.25.26-.53.5-.78.77v4.64h1.82v-5.92c.36-.38.72-.76,1.06-1.15-.36.23-.74.45-1.11.67-.73.55-1.49,1.06-2.26,1.53-.22.25-.44.48-.67.71Z"/><path class="cls-3" d="M330,122.76a9.2,9.2,0,0,0,2-1.06v6.51h1.82v-8.37h-1.55A12.27,12.27,0,0,1,330,121.1v1.66Z"/><path class="cls-4" d="M335,124c0,2.24.74,4.3,2.89,4.3,2.53,0,3-2.56,3-4.5a4.91,4.91,0,0,0-.76-3A2.55,2.55,0,0,0,338,119.7c-2.7,0-2.92,3.22-2.92,4.34Zm4.06.1c0,1.15-.16,2.78-1.12,2.78s-1.12-1.33-1.12-2.76a8.83,8.83,0,0,1,.28-2.34.92.92,0,0,1,.83-.72c.66,0,.86.74.91,1a9.23,9.23,0,0,1,.22,2.07Z"/><path class="cls-4" d="M341.71,124c0,2.24.74,4.3,2.89,4.3,2.52,0,3-2.56,3-4.5a5,5,0,0,0-.76-3,2.55,2.55,0,0,0-2.18-1.11c-2.7,0-2.92,3.22-2.92,4.34Zm4.06.1c0,1.15-.16,2.78-1.12,2.78s-1.12-1.33-1.12-2.76a8.83,8.83,0,0,1,.28-2.34.92.92,0,0,1,.83-.72c.66,0,.86.74.91,1a9.23,9.23,0,0,1,.22,2.07Z"/><path class="cls-3" d="M266.25,112.08a8.7,8.7,0,0,0,2-1.07v6.52H270v-8.38h-1.55a11.19,11.19,0,0,1-2.23,1.26v1.67Z"/><path class="cls-3" d="M271.55,112.08a8.68,8.68,0,0,0,2-1.07v6.52h1.81v-3.85a37.93,37.93,0,0,1-1.8-3.54c-.19-.18-.37-.38-.54-.57a.32.32,0,0,1-.06.15,11.7,11.7,0,0,1-1.37.69v1.67Z"/><path class="cls-4" d="M275.71,114a23.32,23.32,0,0,0,1.32,2,2.9,2.9,0,0,0,1.22,1.43,10.42,10.42,0,0,0,.77.72c1.45,1.14.18-1.1-.19-1.76a29.92,29.92,0,0,0-1.76-2.85,7.61,7.61,0,0,0-1.72-1.86c-1.29-.9.16,2,.36,2.35Zm2.12,1.81c.11.2,1,1.78.59,1.45a8.45,8.45,0,0,1-1.8-2.39,11.34,11.34,0,0,1-.85-1.71c0-.17-.09-.45.14-.27a3.71,3.71,0,0,1,.91,1.2c.35.57.68,1.15,1,1.72Z"/><path class="cls-4" d="M279.48,116.85a10.48,10.48,0,0,0,4,4.19c1.85,1,1.36-.72.78-1.94a14,14,0,0,0-1.88-3,6.83,6.83,0,0,0-2.42-1.91c-2-.81-1,1.72-.51,2.64Zm3.26,1.77c.13.26,1.05,2,.2,1.55a5.8,5.8,0,0,1-2.06-2.45,7.19,7.19,0,0,1-.75-1.84c-.05-.3.12-.45.41-.32a3.06,3.06,0,0,1,1.18,1.24c.37.59.7,1.21,1,1.82Z"/><path class="cls-3" d="M284.48,118.42a4.35,4.35,0,0,0,1.71-.27,30.41,30.41,0,0,0,2.29,5c.64.22,1.27.42,1.91.62a33.92,33.92,0,0,1-2.65-6.9q-.94-.23-1.86-.48a5.62,5.62,0,0,1-2,.51c.19.51.39,1,.61,1.53Z"/><path class="cls-4" d="M290.54,121.21a6.07,6.07,0,0,0,4.68,3.79c2,.39,3.39-.43,3-2.62a5.6,5.6,0,0,0-1.58-3,6,6,0,0,0-3.37-1.61c-2.26-.3-3.54,1.21-2.73,3.42Zm5.25,1.1c.19.77.33,2-.84,1.82a3,3,0,0,1-2.1-2.32,4.22,4.22,0,0,1-.22-2,.77.77,0,0,1,1-.52,2.09,2.09,0,0,1,1.48,1.15,7.45,7.45,0,0,1,.72,1.89Z"/><path class="cls-3" d="M298.91,121.52a11.67,11.67,0,0,0,2.78-.81c.14,1.71.31,3.41.55,5.11.8.05,1.6.08,2.41.1-.13-2.35-.2-4.71-.26-7.07-.81,0-1.62,0-2.43-.07a15.22,15.22,0,0,1-3.27,1.12c.07.54.14,1.08.22,1.62Z"/><path class="cls-3" d="M306.76,121.85a15.33,15.33,0,0,0,3-1.1c-.12,1.7-.26,3.4-.47,5.1.8,0,1.6-.1,2.39-.18.48-2.32.77-4.69,1-7q-1.2.09-2.4.15a19.22,19.22,0,0,1-3.51,1.45c0,.54,0,1.09,0,1.63Z"/><path class="cls-4" d="M314,122.54c-.37,2.07,1,2.83,2.93,2.46a6.24,6.24,0,0,0,4.83-4,2.79,2.79,0,0,0-.1-2.59,2.82,2.82,0,0,0-2.71-.64,6,6,0,0,0-5,4.76Zm5.43-.78a3.13,3.13,0,0,1-2.11,2.35c-1.18.22-1-1-.83-1.81a7.34,7.34,0,0,1,.86-2.16,2,2,0,0,1,1.31-.89.79.79,0,0,1,1,.74,4.47,4.47,0,0,1-.24,1.77Z"/><path class="cls-4" d="M322.63,120.93c-.61,1.62-.17,2.71,1.65,2a8.58,8.58,0,0,0,4.59-4.3,3.1,3.1,0,0,0,.44-2.39c-.31-.71-1.32-.53-1.9-.35a8.07,8.07,0,0,0-4.78,5Zm4.39-1.34a4.51,4.51,0,0,1-2.16,2.46c-1.07.39-.38-1.17-.19-1.63a13.05,13.05,0,0,1,1.11-2.13,2.39,2.39,0,0,1,1.17-1c.45-.13.7.14.62.6a5.27,5.27,0,0,1-.55,1.68Z"/><path class="cls-3" d="M329.84,117.52A18.21,18.21,0,0,0,332,115.8a28.92,28.92,0,0,1-2.74,4.85c.45-.25.9-.52,1.33-.79a31.54,31.54,0,0,0,3.55-6.5c-.4.21-.79.41-1.2.6a20.53,20.53,0,0,1-2.4,2.06c-.2.51-.42,1-.65,1.5Z"/><path class="cls-4" d="M333.23,116.46c-.37.65-1.5,2.7-.16,1.63.25-.2.48-.43.71-.65a2.91,2.91,0,0,0,1.44-1.69c.45-.63.89-1.28,1.28-2a6.32,6.32,0,0,0,.9-2.08c.08-.5-.38-.3-.63-.11-1.59,1.2-2.59,3.16-3.54,4.86Zm2.3-1.68a8.88,8.88,0,0,1-1.8,2.41c-.4.33.44-1.19.58-1.43.39-.66.76-1.33,1.16-2a3.46,3.46,0,0,1,.75-1c.31-.23.13.3.08.44a11.3,11.3,0,0,1-.77,1.51Z"/><path class="cls-4" d="M336.75,113.6c-.1.18-.22.35-.31.54.16,1.65.92,3.54,2.86,3.52,2.4,0,3-2.56,3-4.5a5.34,5.34,0,0,0-.76-3,2.6,2.6,0,0,0-2-1.1s0,0-.06.06a40.2,40.2,0,0,0-2.71,4.51Zm3.72-.14c0,1.15-.16,2.78-1.12,2.78s-1.12-1.33-1.12-2.76a8.83,8.83,0,0,1,.28-2.34.92.92,0,0,1,.83-.72c.66,0,.86.74.91,1a9.23,9.23,0,0,1,.22,2.07Z"/><path class="cls-4" d="M343.09,113.36c0,2.24.74,4.3,2.89,4.3,2.53,0,3-2.56,3-4.5a4.89,4.89,0,0,0-.76-3A2.55,2.55,0,0,0,346,109c-2.69,0-2.92,3.22-2.92,4.34Zm4.06.1c0,1.15-.16,2.78-1.12,2.78s-1.12-1.33-1.12-2.76a8.83,8.83,0,0,1,.28-2.34.92.92,0,0,1,.83-.72c.66,0,.86.74.91,1a9.23,9.23,0,0,1,.22,2.07Z"/><path class="cls-4" d="M269,102.68c0,1.79.53,4,2.62,4.29,0,0,.06.07.08.1.36.44-.36-2.89-.49-3.41-.28-1.13-.55-2.26-.9-3.37-.14-.47-.29-1.24-.71-1.54s-.15,1.17-.14,1.34a6.9,6.9,0,0,0-.46,2.59Zm1.77.82c.2.77,1,2.94.5,2.33a7.69,7.69,0,0,1-1-2.86,21.15,21.15,0,0,1-.46-2.21c0-.07-.06-.65,0-.57.27.25.32.83.4,1.18.18.71.35,1.42.54,2.13Z"/><path class="cls-4" d="M271.54,104.08c.45,1.73,1,4.17,2.57,5.28s.34-3.37.22-3.91a23.57,23.57,0,0,0-1.18-3.86c-.26-.6-.67-1.56-1.36-1.77-1.35-.39-.41,3.63-.25,4.26Zm1.82,1.22c.09.33.61,2.87.29,2.66-.87-.58-1.12-2.31-1.36-3.25a15.86,15.86,0,0,1-.46-2.55c0-.13-.05-.79.22-.66s.56,1,.67,1.35c.24.81.44,1.63.64,2.45Z"/><path class="cls-3" d="M274.43,104.31a3,3,0,0,0,1.15-.89,54.55,54.55,0,0,0,1.92,7.78c.49.23,1,.44,1.47.65a60.66,60.66,0,0,1-2.25-10.59c-.43-.08-.87-.17-1.3-.27a5.39,5.39,0,0,1-1.37,1.24c.11.7.24,1.39.38,2.08Z"/><path class="cls-3" d="M278.75,105.62a5.53,5.53,0,0,0,1.8-1.05A67.38,67.38,0,0,0,282.3,113c.67.21,1.33.4,2,.58a77.06,77.06,0,0,1-2-11.47l-1.83-.24a8.68,8.68,0,0,1-2.12,1.43c.11.77.23,1.54.37,2.3Z"/><path class="cls-4" d="M284.72,108.57c.46,2.71,1.86,5.81,4.87,6.33,3.4.6,3.72-3,3.48-5.52a10,10,0,0,0-1.59-4.83,4.75,4.75,0,0,0-3.49-2.06c-3.31-.17-3.69,3.58-3.27,6.08Zm5.64,1c.1.87.57,3.86-1,3.6s-2-2.71-2.16-4a10.61,10.61,0,0,1-.05-3.42c.12-.53.47-1.06,1.08-1,.83.09,1.29.94,1.51,1.66a15.35,15.35,0,0,1,.66,3.15Z"/><path class="cls-4" d="M294.4,109.8c.28,3,1.82,6.08,5.17,6.28,3.63.22,4.73-3.06,4.69-6.13a8.5,8.5,0,0,0-1.4-4.91,5,5,0,0,0-3.93-2c-3.66,0-4.83,3.61-4.53,6.73Zm6.76.54c0,1.18.15,4-1.66,3.9s-2-2.7-2.11-4a10.64,10.64,0,0,1,.26-3.64,1.44,1.44,0,0,1,1.38-1.12,2,2,0,0,1,1.65,1.65,12,12,0,0,1,.48,3.26Z"/><path class="cls-3" d="M305.3,108.27a15.07,15.07,0,0,0,3.47-1.75q-.07,4.78-.21,9.57,1.47,0,2.94-.12c.28-4.21.45-8.43.56-12.64l-2.77,0a20.65,20.65,0,0,1-4,2.16c0,.91,0,1.82,0,2.73Z"/><path class="cls-4" d="M314,110.06c-.14,2.67.69,5.94,4,5.52s4.84-3.62,5.23-6.66a7,7,0,0,0-.64-4.52,3.53,3.53,0,0,0-3.34-1.58c-3.63.3-5.09,4.05-5.27,7.24Zm6.52-.38c-.15,1.33-.47,3.88-2.18,4.08s-1.42-2.69-1.34-3.72a13.74,13.74,0,0,1,.72-3.66,1.81,1.81,0,0,1,1.43-1.26c.83-.05,1.24.73,1.34,1.45a10.46,10.46,0,0,1,0,3.11Z"/><path class="cls-3" d="M324.26,107.22a14.51,14.51,0,0,0,2.89-2,83.09,83.09,0,0,1-1.53,8.85c.73-.16,1.46-.34,2.18-.53a76.71,76.71,0,0,0,2-11.46l-2,.22a18.22,18.22,0,0,1-3.27,2.31c-.08.86-.17,1.71-.27,2.56Z"/><path class="cls-4" d="M330.41,108c-.24,1.33-.87,5.38,1.66,4.42s3.41-3.94,3.92-6.24a7.64,7.64,0,0,0,.12-3.74,1.49,1.49,0,0,0-1.74-1.14c-2.71.57-3.54,4.41-4,6.7Zm4-.94c-.24,1.11-.6,3.29-1.84,3.73-1.09.39-.36-2.63-.27-3.1a24.09,24.09,0,0,1,.84-3.24c.17-.43.45-1.07,1-1.18s.64.75.63,1.14a11.87,11.87,0,0,1-.33,2.65Z"/><path class="cls-4" d="M336.55,106.17c-.15.64-1.12,4.84.47,3.83,1.77-1.13,2.44-3.78,2.91-5.68a9.71,9.71,0,0,0,.37-3.26c-.05-.46-.29-1.16-.9-.94-2,.71-2.45,4.28-2.85,6Zm2.46-1c-.25,1-.53,2.81-1.47,3.37-.46.28.12-2.38.2-2.72.23-1,.46-1.94.76-2.88.12-.34.27-.94.65-1.07s.29.78.27,1a14.4,14.4,0,0,1-.41,2.33Z"/><path class="cls-4" d="M340.21,104.32c-.13.53-.81,3.89-.31,3.34,1.16-1.3,1.6-3.38,2-5a14.85,14.85,0,0,0,.48-2.82c0-.15,0-1-.32-.79-1.31.9-1.5,3.84-1.87,5.3Zm1.25-1a7.23,7.23,0,0,1-1.09,3c-.55.59.25-1.59.45-2.38s.42-1.68.65-2.52c.07-.26.13-.76.37-.93s.06.73,0,.83a19.56,19.56,0,0,1-.42,2Z"/><path class="cls-3" d="M342.26,101.48c0-.07.05-.21.11-.25a8.65,8.65,0,0,0,1.56-.9v6.52h1.81V98.47h-1.55a10.85,10.85,0,0,1-1.42.88,3.09,3.09,0,0,0-.18.51q-.15.81-.33,1.62Z"/><path class="cls-4" d="M264.61,92c0,1.89.63,4.23,2.89,4.3a2.66,2.66,0,0,0,1.33-.31,29.68,29.68,0,0,0,.07-4.22c0-1,.05-2,0-3.08a2.49,2.49,0,0,0,0-.67,2.57,2.57,0,0,0-1.38-.36c-2.25.09-2.93,2.43-2.92,4.34Zm4.05.1c0,.13,0,.27,0,.4,0,.72-.08,2.38-1.11,2.38s-1.11-2-1.12-2.76a8,8,0,0,1,.28-2.34.92.92,0,0,1,.83-.72c.53,0,.81.51.91,1a7.42,7.42,0,0,1,.21,1.82,2.08,2.08,0,0,1,0,.25Z"/><path class="cls-3" d="M269,90.62c.16-.41.32-.83.45-1.26a46.92,46.92,0,0,0,.1,7.21l.48.18a50.19,50.19,0,0,1,.09-9.65l-.42.19c-.2.53-.39,1.06-.59,1.58s-.08,1.17-.11,1.75Z"/><path class="cls-3" d="M270.39,90.39a11.6,11.6,0,0,0,.87-1.43,55.56,55.56,0,0,0,.1,8.16l.91.2a60.13,60.13,0,0,1,.09-10.9l-.79.2c-.33.61-.68,1.2-1.06,1.78-.05.66-.09,1.32-.12,2Z"/><path class="cls-3" d="M273,90.13a9.8,9.8,0,0,0,1.42-1.6,70.3,70.3,0,0,0,.11,9.18l1.45.2a76.46,76.46,0,0,1,.1-12.2l-1.26.21a19.74,19.74,0,0,1-1.69,2c-.06.75-.1,1.49-.13,2.24Z"/><path class="cls-3" d="M277.2,89.87a12,12,0,0,0,2.07-1.75,93.05,93.05,0,0,0,.1,10.16l2.08.19A102,102,0,0,1,281.54,85l-1.79.19a20.56,20.56,0,0,1-2.43,2.14c-.06.84-.1,1.67-.12,2.5Z"/><path class="cls-4" d="M282.85,91.75c0,2.75.68,7.13,4.19,7.31,4,.21,4.45-4.81,4.47-7.72a10.14,10.14,0,0,0-1.11-5.28,3.48,3.48,0,0,0-3.25-1.69c-3.48.34-4.3,4.52-4.3,7.38Zm5.79.14c0,1.14.18,4.83-1.63,4.78s-1.68-3.52-1.68-4.73a14.34,14.34,0,0,1,.47-4c.18-.57.57-1.24,1.25-1.27.85,0,1.19.92,1.31,1.61a17.13,17.13,0,0,1,.28,3.58Z"/><path class="cls-4" d="M292.86,91.7c0,3.25,1.09,7.71,5.09,7.78,4.37.07,5.31-4.71,5.32-8.18a9.76,9.76,0,0,0-1.36-5.52,4.48,4.48,0,0,0-3.88-1.9c-4,.21-5.18,4.47-5.17,7.82Zm7.11.16c0,1.37.11,5.09-2,5.08s-2-3.63-2-5a14.09,14.09,0,0,1,.52-4.24A1.72,1.72,0,0,1,298,86.35c.95,0,1.43.92,1.6,1.73a14.57,14.57,0,0,1,.37,3.78Z"/><path class="cls-4" d="M304.77,91.68c0,3.35,1.14,7.92,5.3,7.86,4.34-.06,5.39-4.69,5.38-8.22a9.63,9.63,0,0,0-1.4-5.48,4.8,4.8,0,0,0-3.95-2c-4.12.06-5.35,4.45-5.33,7.88Zm7.46.18c0,1.43.07,5.09-2.05,5.12s-2-3.67-2-5.08a14.81,14.81,0,0,1,.5-4.3,1.68,1.68,0,0,1,1.51-1.3c1,0,1.48.94,1.67,1.78a14.1,14.1,0,0,1,.41,3.78Z"/><path class="cls-3" d="M316.49,89.38a14,14,0,0,0,3.29-1.84q.14,5.77-.06,11.54,1.45,0,2.91-.12c.19-4.83.17-9.68-.06-14.52l-2.47-.12a19.18,19.18,0,0,1-3.66,2.08c0,1,0,2,.05,3Z"/><path class="cls-3" d="M325.07,89.53a10.53,10.53,0,0,0,2.72-1.7q.21,5.43-.08,10.85l2.36-.17A105.17,105.17,0,0,0,330,85c-.66-.07-1.33-.12-2-.18a13.44,13.44,0,0,1-3,1.88c0,1,.07,1.9.09,2.84Z"/><path class="cls-4" d="M331.77,91.77c0,1.79,0,6.86,2.86,6.51s2.83-4.68,2.8-6.73a11.08,11.08,0,0,0-.79-4.38,2.89,2.89,0,0,0-2.08-1.86c-2.87-.28-2.81,4.62-2.79,6.46Zm4.17.19c0,.9.18,4.09-1.13,4.2s-1-3.41-1-4.18a21.49,21.49,0,0,1,.19-3.59c.07-.38.25-1.08.76-1s.84,1,.93,1.52a15.8,15.8,0,0,1,.28,3.07Z"/><path class="cls-3" d="M337.85,90a4.77,4.77,0,0,0,1.27-1.34,64.14,64.14,0,0,1-.11,8.77c.35-.06.7-.12,1-.2A58.93,58.93,0,0,0,340,86.48c-.29-.08-.59-.15-.88-.21a5.29,5.29,0,0,1-1.35,1.44c0,.78.1,1.56.12,2.33Z"/><path class="cls-3" d="M341,90.3a3.57,3.57,0,0,0,.72-1.18,51.82,51.82,0,0,1-.1,7.78l.58-.19a49.15,49.15,0,0,0-.09-9.55l-.49-.2a3.69,3.69,0,0,1-.74,1.27q.09,1,.12,2.07Z"/><path class="cls-3" d="M342.71,90.55a3.8,3.8,0,0,0,.32-1,46.08,46.08,0,0,1-.09,6.85l.26-.17a43,43,0,0,0-.08-8.41,1.92,1.92,0,0,0-.22-.18,3.44,3.44,0,0,1-.3,1.11c0,.61.08,1.23.11,1.84Z"/><path class="cls-4" d="M264.19,81.32c0,1.86.63,4.27,2.89,4.3a2.69,2.69,0,0,0,2.58-1.88,5.81,5.81,0,0,0,.28-1.09,9.88,9.88,0,0,0,.11-1.54,5.4,5.4,0,0,0-.76-3A2.59,2.59,0,0,0,267.11,77c-2.26.06-2.93,2.45-2.92,4.34Zm4.06.1c0,1.15-.16,2.78-1.12,2.78S266,82.87,266,81.44a8.79,8.79,0,0,1,.28-2.34.91.91,0,0,1,.83-.72c.66,0,.86.74.91,1a9.23,9.23,0,0,1,.22,2.07Z"/><path class="cls-4" d="M270.44,81.18c-.13.47-.72,4-.28,3.69,1.37-.92,1.63-4,2-5.49a18.94,18.94,0,0,0,.67-2.77c0-.36-.1-.57-.38-.25a12.32,12.32,0,0,0-2.05,4.82Zm1-1c-.22.82-.33,2.61-1,3.15,0,0,.26-2.13.36-2.53a23.55,23.55,0,0,1,.75-2.29,2.59,2.59,0,0,1,.47-.92c.17-.19,0,.54,0,.61-.17.66-.36,1.32-.54,2Z"/><path class="cls-3" d="M272.78,78.09c.43-.57.86-1.15,1.27-1.74a49.94,49.94,0,0,0-1.76,7.34c.33-.13.67-.25,1-.36a49.46,49.46,0,0,1,2.44-9.5c-.3.19-.6.38-.89.58q-.75,1-1.53,2c-.19.55-.37,1.11-.54,1.67Z"/><path class="cls-4" d="M275.13,77.94c-.27,1.1-1.15,5.29,1.14,4.76,2.62-.61,3.35-4.52,3.84-6.72a6.67,6.67,0,0,0,.2-3.4c-.24-.68-1-.7-1.54-.43-2.11,1-3.11,3.68-3.64,5.79Zm3.17-1.06c-.23,1-.5,3.56-1.69,3.89-1,.28-.3-2.77-.19-3.22a14,14,0,0,1,.95-2.82,2.09,2.09,0,0,1,.91-1.09c.5-.2.49.49.46.8a18.35,18.35,0,0,1-.44,2.44Z"/><path class="cls-3" d="M281,74.46a26.44,26.44,0,0,0,2.46-1.9,77.58,77.58,0,0,0-1.56,8.93q1.14-.17,2.28-.3a80.79,80.79,0,0,1,2-11.36l-1.82.47c-.91.76-1.85,1.48-2.81,2.16-.18.66-.36,1.33-.52,2Z"/><path class="cls-3" d="M287.35,73a25,25,0,0,0,2.94-1.85c-.53,3.15-.9,6.32-1.16,9.5q1.41-.12,2.82-.21c.28-4,.69-8,1.35-12-.74.1-1.48.21-2.21.33-1.08.75-2.19,1.43-3.33,2.07-.15.71-.29,1.42-.41,2.13Z"/><path class="cls-3" d="M295.1,72a22.43,22.43,0,0,0,3.26-1.7c-.27,3.29-.46,6.58-.59,9.87,1.06,0,2.12-.08,3.18-.1.1-4.1.25-8.2.5-12.3q-1.23.06-2.46.15a37.68,37.68,0,0,1-3.63,1.87c-.1.74-.18,1.47-.26,2.21Z"/><path class="cls-3" d="M303.8,71.52A19.92,19.92,0,0,0,307.1,70c0,3.32.06,6.64.08,10l3.25,0c-.09-4.1-.22-8.21-.43-12.31l-2.5-.07a27.35,27.35,0,0,1-3.64,1.6l-.06,2.26Z"/><path class="cls-4" d="M312.38,73.49c.18,3.12,1.62,6.86,5.24,7S322.06,77,321.67,74A7.87,7.87,0,0,0,320,69.82a5.29,5.29,0,0,0-3.45-1.76c-3.24-.29-4.3,2.66-4.13,5.43Zm6.61.62c.12,1.12.41,4.22-1.43,4.11s-2-3-2.14-4.37a9.58,9.58,0,0,1,.15-3.25,1.11,1.11,0,0,1,1.19-.82,2,2,0,0,1,1.56,1.42,10.43,10.43,0,0,1,.67,2.91Z"/><path class="cls-3" d="M322.32,72.63a8.73,8.73,0,0,0,2.43-.93A90.76,90.76,0,0,1,326.1,81c.81.08,1.62.18,2.42.28a78.52,78.52,0,0,0-2-11.29c-.64-.16-1.27-.31-1.91-.45a12.28,12.28,0,0,1-2.65.94c.14.72.26,1.44.37,2.16Z"/><path class="cls-4" d="M329.18,75.55c.45,2.29,1.37,6.16,4.14,6.65s2-3.77,1.63-5.27a11.42,11.42,0,0,0-1.61-3.76,5,5,0,0,0-2.37-2c-2.59-.87-2.07,2.87-1.79,4.34Zm4.28,1.23c.13.55.84,3.67-.38,3.42s-1.6-2.94-1.83-4a13.86,13.86,0,0,1-.39-2.85c0-.36.18-.72.59-.58a2.39,2.39,0,0,1,1.19,1.43,12.8,12.8,0,0,1,.82,2.59Z"/><path class="cls-4" d="M335.66,77.41c.43,1.76,1,5.43,3.06,6.06,1.81.56.68-3.81.48-4.55a15,15,0,0,0-1.35-3.38,5,5,0,0,0-1.64-1.89c-1.79-1-.72,3.1-.55,3.76Zm2.71,1.31c.09.35.73,3.23.08,3-1-.36-1.22-2.73-1.44-3.62a24.66,24.66,0,0,1-.56-2.55c0-.19,0-.66.28-.48a2.78,2.78,0,0,1,.87,1.34,18.55,18.55,0,0,1,.77,2.32Z"/><path class="cls-4" d="M339.63,79.38c.38,1.42.69,4.54,2.06,5.34.65.38-.12-3.46-.25-3.92a22.14,22.14,0,0,0-1.07-3,5.79,5.79,0,0,0-1-1.72c-.77-.77.19,2.93.29,3.29Zm1.45,1.23a19.55,19.55,0,0,1,.35,2.59c-.71-.49-.83-2.38-1.05-3.18s-.42-1.5-.61-2.25c0-.06-.12-.59.05-.41a3.31,3.31,0,0,1,.6,1.2c.25.67.47,1.35.66,2Z"/><path class="cls-3" d="M341.28,80l0,0A8.34,8.34,0,0,0,343,79v6.52h1.81V77.11h-1.55a11.87,11.87,0,0,1-2.22,1.26v.92a2.43,2.43,0,0,0,.21.68Z"/><path class="cls-4" d="M263.71,70.64c0,2.23.74,4.3,2.89,4.3,2.52,0,3-2.56,3-4.51a4.87,4.87,0,0,0-.76-3,2.55,2.55,0,0,0-2.18-1.11c-2.7,0-2.92,3.22-2.92,4.34Zm4.06.09c0,1.16-.16,2.79-1.12,2.79s-1.12-1.33-1.12-2.76a8.79,8.79,0,0,1,.28-2.34.91.91,0,0,1,.83-.72c.66,0,.86.74.91,1a9.2,9.2,0,0,1,.22,2.06Z"/><path class="cls-4" d="M270.38,70.64c0,1.78.53,4,2.6,4.29,0,0,.07-.08.09-.1a43,43,0,0,0,2.91-4.6c.08-.13.18-.27.25-.41a4.77,4.77,0,0,0-.74-2.41,2.59,2.59,0,0,0-2.18-1.11c-2.26.06-2.93,2.45-2.93,4.34Zm4.07.09a5.29,5.29,0,0,1-.34,2.2,2,2,0,0,1-.16.28.79.79,0,0,1-.62.31c-1.17,0-1.11-2-1.12-2.76a8,8,0,0,1,.28-2.34.91.91,0,0,1,.83-.72c.53,0,.81.51.91,1a7.93,7.93,0,0,1,.22,2.06Z"/><path class="cls-3" d="M276.7,69.25c.47-.53.95-1,1.43-1.56a31.91,31.91,0,0,0-2.78,4.89l1-.73A30.14,30.14,0,0,1,280,65.77q-.44.32-.84.66h-.06a11.87,11.87,0,0,1-2.22,1.26V69c0,.07-.1.14-.15.22Z"/><path class="cls-3" d="M279.61,66.91l1.81-1.56a31.82,31.82,0,0,0-2.75,5.11c.48-.25,1-.49,1.45-.72a29.75,29.75,0,0,1,3.47-6.3c-.39.21-.78.43-1.17.67-.69.56-1.39,1.14-2.08,1.72-.25.36-.5.72-.73,1.08Z"/><path class="cls-4" d="M282.88,65.68c-.73,1.35-1,3.35,1.14,2.65a8.59,8.59,0,0,0,4.81-5c.22-.5.65-1.33.21-1.82s-1.32,0-1.77.16a8.88,8.88,0,0,0-4.39,4Zm3.88-1.5c-.46,1-1.07,2.38-2.19,2.77s-.27-1.51-.07-1.91a8.47,8.47,0,0,1,1.18-1.78,3,3,0,0,1,1.07-.78c.28-.1.64-.11.54.29a5.46,5.46,0,0,1-.53,1.41Z"/><path class="cls-4" d="M289.7,63.22c-.81,2,.26,3.49,2.46,3.1a6.16,6.16,0,0,0,5-4.74,1.76,1.76,0,0,0-.4-1.93,3.16,3.16,0,0,0-2.4-.13,6.4,6.4,0,0,0-4.67,3.7Zm5-1c-.31,1.08-.89,2.47-2.14,2.7s-1-1.38-.71-2.12a5.49,5.49,0,0,1,1-1.77,2.27,2.27,0,0,1,1.19-.68c.35-.07.85,0,.88.41a3.5,3.5,0,0,1-.2,1.46Z"/><path class="cls-3" d="M298.16,60.68c.94-.3,1.87-.62,2.77-1-.3,1.84-.52,3.69-.7,5.54.93-.06,1.85-.11,2.78-.14.12-2.22.25-4.45.48-6.66-.67,0-1.34.07-2,.13-1,.36-2,.7-3,1-.1.36-.19.73-.28,1.1Z"/><path class="cls-4" d="M305.05,61.17c0,2.52,2.08,4,4.43,4.06s4.36-1.24,3.87-3.84a3.31,3.31,0,0,0-1.44-2.18,5.78,5.78,0,0,0-3-.84c-1.86-.07-3.86.62-3.9,2.8Zm5.82.24c.12,1-.09,2.42-1.41,2.37s-1.72-1.4-1.78-2.5a3.1,3.1,0,0,1,.3-1.7,1.2,1.2,0,0,1,1.08-.41,1.55,1.55,0,0,1,1.31.7,3.63,3.63,0,0,1,.5,1.54Z"/><path class="cls-3" d="M314,60.69a16.94,16.94,0,0,0,2.34-.35,43.41,43.41,0,0,1,1.39,5.5c.85.12,1.69.26,2.52.41a34.58,34.58,0,0,0-2.16-6.59c-.61-.13-1.22-.26-1.84-.37-.83.13-1.68.23-2.53.29.1.37.2.74.28,1.11Z"/><path class="cls-4" d="M320.75,62.8a7.49,7.49,0,0,0,4.79,4.77c2.29.61,2.43-1.23,1.57-2.92a7.72,7.72,0,0,0-1.9-2.35,7.89,7.89,0,0,0-2.58-1.44c-1.68-.54-2.54.19-1.88,1.94Zm4.65,1.41c.22.48.93,2.33-.26,2s-1.77-1.72-2.2-2.74a4.52,4.52,0,0,1-.46-1.6c0-.32.43-.25.65-.17a2.77,2.77,0,0,1,1.29,1,6.89,6.89,0,0,1,1,1.57Z"/><path class="cls-4" d="M328,65.13c1,1.86,2.3,3.92,4.28,4.84s.88-1.65.35-2.54a12,12,0,0,0-1.85-2.35,9.35,9.35,0,0,0-2.09-1.6c-1.62-.87-1.28.5-.69,1.65Zm3.47,1.75c.13.23,1.13,2.22.28,1.81s-1.56-1.81-2.06-2.73a10,10,0,0,1-.75-1.54c-.07-.28.2-.2.36-.11a4,4,0,0,1,1.12,1,10.29,10.29,0,0,1,1.05,1.55Z"/><path class="cls-3" d="M332.51,66.94a1.84,1.84,0,0,0,.72.16,32.08,32.08,0,0,1,2.79,5q.5.35,1,.72a32.25,32.25,0,0,0-3.21-5.47v-.87H333l-.41-.33a4,4,0,0,1-.77-.24c.25.35.5.71.73,1.08Z"/><path class="cls-3" d="M335.41,69.27l0,0a9.34,9.34,0,0,0,1.8-1v3.5c.4.78.83,1.55,1.2,2.34a6.48,6.48,0,0,0,.6.68c0-2.79,0-5.59,0-8.38h-1.55a11.87,11.87,0,0,1-2.22,1.26V69.1a1.77,1.77,0,0,0,.12.17Z"/><path class="cls-4" d="M340.32,70.64c0,2.23.75,4.3,2.9,4.3,2.52,0,3-2.56,3-4.51a4.94,4.94,0,0,0-.76-3,2.56,2.56,0,0,0-2.19-1.11c-2.69,0-2.92,3.22-2.92,4.34Zm4.07.09c0,1.16-.16,2.79-1.12,2.79s-1.12-1.33-1.12-2.76a8.79,8.79,0,0,1,.28-2.34.91.91,0,0,1,.83-.72c.66,0,.86.74.91,1a9.2,9.2,0,0,1,.22,2.06Z"/><path class="cls-3" d="M268.79,58.68a8.94,8.94,0,0,0,2-1.07v6.52h1.81V55.75H271A11.12,11.12,0,0,1,268.79,57v1.67Z"/><path class="cls-4" d="M273.82,60c0,2.23.75,4.3,2.9,4.3,2.52,0,3-2.56,3-4.51a5,5,0,0,0-.75-3,2.56,2.56,0,0,0-2.19-1.11c-2.69,0-2.92,3.22-2.92,4.34Zm4.06.09c0,1.16-.15,2.79-1.12,2.79s-1.11-1.33-1.11-2.76a9.1,9.1,0,0,1,.27-2.34.94.94,0,0,1,.83-.73c.66,0,.87.75.92,1a9.8,9.8,0,0,1,.21,2.06Z"/><path class="cls-4" d="M280.5,60c0,1.37.25,3,1.42,3.86a3.12,3.12,0,0,0,.77-.44,27.94,27.94,0,0,0,3.64-2.77,8.24,8.24,0,0,0,0-.86,5.31,5.31,0,0,0-.75-3,2.61,2.61,0,0,0-2.19-1.11c-2.26.06-2.92,2.45-2.92,4.34Zm4.06.09a6.58,6.58,0,0,1-.21,1.88,7.56,7.56,0,0,1-1,.78.83.83,0,0,1-.16.09c-.92-.39-.85-1.9-.85-2.72a7.69,7.69,0,0,1,.27-2.34,1,1,0,0,1,.83-.73c.53,0,.81.52.92,1a8.38,8.38,0,0,1,.21,2.06Z"/><path class="cls-4" d="M287.18,60v.14c-1.1,1-.09.92.84.54a14.22,14.22,0,0,0,4.3-2.71c.1-.09.43-.32.36-.47a4.63,4.63,0,0,0-.39-.73,2.61,2.61,0,0,0-2.19-1.11c-2.27.06-2.9,2.45-2.92,4.34Zm3.4-1.36a7.21,7.21,0,0,1-2,1.39c-.75.31-.3-.28.06-.59a4.12,4.12,0,0,0,.4-.33,6,6,0,0,1,.23-1.33,1,1,0,0,1,.83-.73c.53,0,.81.52.91,1a.65.65,0,0,1,0,.13c-.06.18-.35.36-.48.48Z"/><path class="cls-3" d="M293.2,57.47c.7-.27,1.41-.52,2.13-.77a8.46,8.46,0,0,0-1.71,2.06c.66-.17,1.34-.33,2-.47A8.82,8.82,0,0,1,297.41,56v-.25h-1.54A12,12,0,0,1,293.64,57v.09a2.61,2.61,0,0,1-.44.37Z"/><path class="cls-3" d="M298.42,56.21l2.19-.52a7.75,7.75,0,0,0-.89,1.94c.73-.09,1.46-.16,2.2-.22a7.27,7.27,0,0,1,.74-2.19l-1.55.15-2.4.51-.29.33Z"/><path class="cls-4" d="M303.71,55.91c-.25,1.32,2.56,1.39,3.36,1.41s3.74,0,3.2-1.33c-.16-.41-.68-.56-1.07-.66a10.38,10.38,0,0,0-2.29-.26c-.79,0-3-.2-3.2.84Zm4.58,0c.13.68-.69.83-1.19.82s-1.33-.18-1.33-.87a.57.57,0,0,1,.31-.5,3,3,0,0,1,1.87.08.78.78,0,0,1,.34.47Z"/><path class="cls-4" d="M311.2,56.14c.65,1.32,2.68,1.73,4,2,.74.13,3.3.34,2.14-.88a3.76,3.76,0,0,0-1.47-.86c-.22-.09-.48-.13-.69-.24a2.76,2.76,0,0,0-1.6-.5,2.59,2.59,0,0,0-.48,0c-.45,0-2.3-.34-1.89.48Zm4.37.72c.46.58-.08.77-.62.67a2.59,2.59,0,0,1-1.75-1.1c-.07-.12-.23-.35-.1-.48s.51,0,.71,0a3.64,3.64,0,0,1,1.1.36,2.44,2.44,0,0,1,.66.54Z"/><path class="cls-3" d="M317.64,57.1l1.51.3a10.1,10.1,0,0,1,2,2.14c.6.19,1.19.4,1.78.62a17.19,17.19,0,0,0-2.08-2.1V55.75h-1.55a12.19,12.19,0,0,1-1.77,1.06c-.1,0-.27-.05-.37-.07a4.94,4.94,0,0,1,.44.36Z"/><path class="cls-4" d="M322.61,59a20.59,20.59,0,0,0,4.07,2.8c.31.16,1.53.75,1.08.12a8.17,8.17,0,0,0,.25-2.2,5.4,5.4,0,0,0-.75-3,2.65,2.65,0,0,0-2.19-1.11c-1.74,0-2.57,1.52-2.82,3.06.06.14.25.25.36.35Zm3.6,1c0,.28,0,.55,0,.83.26.29.46.59,0,.33a11.29,11.29,0,0,1-2-1.47s-.17-.11-.18-.16a5.44,5.44,0,0,1,.27-1.84,1,1,0,0,1,.83-.73c.53,0,.81.52.91,1a7.93,7.93,0,0,1,.22,2.06Z"/><path class="cls-4" d="M328.83,60c0,2.23.74,4.3,2.89,4.3,2.53,0,3-2.56,3-4.51a4.87,4.87,0,0,0-.76-3,2.54,2.54,0,0,0-2.18-1.11c-2.69,0-2.92,3.22-2.92,4.34Zm4.06.09c0,1.16-.16,2.79-1.12,2.79s-1.12-1.33-1.12-2.76a8.79,8.79,0,0,1,.28-2.34.92.92,0,0,1,.83-.73c.66,0,.86.75.91,1a9.2,9.2,0,0,1,.22,2.06Z"/><path class="cls-4" d="M335.51,60c0,2.23.74,4.3,2.89,4.3,2.53,0,3-2.56,3-4.51a4.87,4.87,0,0,0-.76-3,2.55,2.55,0,0,0-2.18-1.11c-2.69,0-2.92,3.22-2.92,4.34Zm4.06.09c0,1.16-.16,2.79-1.12,2.79s-1.12-1.33-1.12-2.76a8.79,8.79,0,0,1,.28-2.34.92.92,0,0,1,.83-.73c.66,0,.86.75.91,1a9.2,9.2,0,0,1,.22,2.06Z"/><path class="cls-3" d="M342,58.68a8.94,8.94,0,0,0,2-1.07v6.52h1.81V55.75h-1.55A10.85,10.85,0,0,1,342,57v1.67Z"/></g></g></g></svg>