<svg xmlns="http://www.w3.org/2000/svg" viewBox="0 0 600 70.5"><g id="Layer_2" data-name="Layer 2"><g id="layer"><path d="M600,35.2C600,5.7,581.6,1,564,1H540.1V69.6H564c17.6-.1,36-4.8,36-34.4Zm-12.4,0c0,22-11.4,23.4-23.6,23.4h-6a8.86,8.86,0,0,0-4.7,1l-2.6,1.7-2.2-2.2,1.5-.9h0a6.52,6.52,0,0,0,2.3-3,11.93,11.93,0,0,0,.4-2.9h0V17.8a12.25,12.25,0,0,0-.2-1.9,6.27,6.27,0,0,0-2.4-3.5l-1.5-.9,2.2-2.2,2.6,1.7a7.51,7.51,0,0,0,1.8.7c.2,0,.9.1,1.1.1h7.8c12,.1,23.5,1.5,23.5,23.4Zm-59,8.9V1H516.1V39.4c0,12.9-2.6,20.2-16.9,20.2s-16.9-7.3-16.9-20.2V1H469.8V44.1c0,17.1,9.7,26.4,29.4,26.4S528.6,61.2,528.6,44.1ZM460,35.2C460,15.3,447.3,0,426.3,0s-33.8,15.3-33.8,35.2,12.7,35.3,33.8,35.3S460,55.3,460,35.2Zm-12.5,0c0,14.5-7,24.4-21.2,24.4s-21.2-9.9-21.2-24.4,7.1-24.3,21.2-24.3,21.2,9.9,21.2,24.3ZM334.7,70.5l50.2-8.8v-12l-48.7,8.4-1.4-1.5c1.5-.4,5-1.8,5-4.5V.9H327.3V63.3C327.4,68,330.1,70.6,334.7,70.5ZM262.5,35.2c0-15.1,8-24.3,21.5-24.3,10.9,0,18.4,5.8,20,16.5h12.5C314.5,10.5,302.3,0,283.8,0,262.8,0,250,15.3,250,35.2s12.8,35.3,33.8,35.3c18.5,0,30.7-10.5,32.7-27.5H304.1c-1.6,10.7-9.1,16.6-20,16.6C270.5,59.6,262.5,50.4,262.5,35.2Zm-54,10.6L241,69.2V54.8L213.4,35.3l27.5-19.5V1.3L208.4,24.8h-3.5L172.6,1.3V15.7l27.5,19.6L172.7,54.8V69.2l32.4-23.4ZM93.4,41.5H162V29H93.4Zm-25.7,28H80.2V.9H55.5L41.7,66.3H38.5L24.7.9H0V69.5H12.5V12.3L10.3,4.1h3.9L28.7,69.5h23L66.1,4.1h4l-2.3,8.2V69.5Z"/></g></g></svg>