<svg xmlns="http://www.w3.org/2000/svg" viewBox="0 0 257.4 348.61"><defs><style>.cls-1{fill:#ccc;}</style></defs><g id="Layer_2" data-name="Layer 2"><g id="Layer_1-2" data-name="Layer 1"><path d="M119.21,322.39a12.53,12.53,0,0,1-3.7,6.9q-4.67,5.06-12.68,5.53v-8.13A7.84,7.84,0,0,0,107,325a8.43,8.43,0,0,0,2.06-2.63Z"/><path d="M172.77,333.67h-10V282h10Z"/><path d="M196.22,310.44a16.07,16.07,0,0,0,4-.88,3,3,0,0,0,2.15-2.84,3.35,3.35,0,0,0-1.65-3.24,10.38,10.38,0,0,0-4.85-.9c-2.39,0-4.09.59-5.08,1.76a7.14,7.14,0,0,0-1.42,3.5h-9.64a14.7,14.7,0,0,1,2.81-8.24q4-5,13.66-5a24.36,24.36,0,0,1,11.2,2.49q4.89,2.49,4.89,9.39V324c0,1.21,0,2.68.07,4.41a5.54,5.54,0,0,0,.6,2.67,3.51,3.51,0,0,0,1.47,1.15v1.47H203.55a11.52,11.52,0,0,1-.63-2.17c-.12-.68-.21-1.45-.28-2.31a20.55,20.55,0,0,1-4.79,3.82,14.51,14.51,0,0,1-7.34,1.86,12.63,12.63,0,0,1-8.62-3c-2.26-2-3.4-4.77-3.4-8.39q0-7,5.47-10.2a24.63,24.63,0,0,1,8.83-2.45Zm6.11,4.66a10.59,10.59,0,0,1-1.94,1,16.93,16.93,0,0,1-2.68.69l-2.28.42a15.09,15.09,0,0,0-4.59,1.36,4.57,4.57,0,0,0-2.36,4.24,4.43,4.43,0,0,0,1.44,3.7,5.48,5.48,0,0,0,3.51,1.14,10.45,10.45,0,0,0,6-1.89c1.84-1.26,2.79-3.56,2.87-6.91Z"/><path d="M253.11,300.06q4.29,5.43,4.29,14,0,8.91-4.23,14.76a15.36,15.36,0,0,1-19.45,4,15.31,15.31,0,0,1-3.73-3.93v4.8h-9.85V282.08h10v18.37a14.52,14.52,0,0,1,4.2-4.07,12.5,12.5,0,0,1,6.91-1.75Q248.83,294.63,253.11,300.06Zm-8.35,23.27a14.12,14.12,0,0,0,2.16-8.2,18.52,18.52,0,0,0-1.06-6.73,7.39,7.39,0,0,0-7.42-5,7.48,7.48,0,0,0-7.53,4.94,18.34,18.34,0,0,0-1.06,6.8,14.16,14.16,0,0,0,2.19,8.13,7.52,7.52,0,0,0,6.68,3.22A6.93,6.93,0,0,0,244.76,323.33Z"/><path d="M12.74,305.68c-1.57,2.07-2.36,5-2.36,8.84s.79,6.78,2.36,8.85a7.56,7.56,0,0,0,4.82,2.95v8.48q-8.38-.54-12.72-5.9a23.69,23.69,0,0,1,0-28.7q4.34-5.44,12.72-6v8.55A7.61,7.61,0,0,0,12.74,305.68Z"/><path d="M39.05,314.52a22.1,22.1,0,0,1-4.84,14.38q-4.3,5.31-12.57,5.89v-8.51a7.48,7.48,0,0,0,4.58-2.91q2.36-3.11,2.35-8.85c0-3.83-.78-6.77-2.35-8.84a7.49,7.49,0,0,0-4.58-2.89v-8.58q8.26.6,12.57,6A22.23,22.23,0,0,1,39.05,314.52Z"/><path d="M52.51,308.4a19.35,19.35,0,0,0-1.07,6.94q0,6.66,3.58,9.36a7.78,7.78,0,0,0,3.39,1.44v7.93A10.78,10.78,0,0,1,55,332.38a14.89,14.89,0,0,1-3.25-3.68v19.91H41.91V295.36h9.57V301a15.94,15.94,0,0,1,3.46-3.93,12,12,0,0,1,3.47-1.85v8.15A7.4,7.4,0,0,0,52.51,308.4Z"/><path d="M79,313.21v1.57q-.17,9.51-4.56,14.58a14.81,14.81,0,0,1-11.76,5.3h-.17V326a7.06,7.06,0,0,0,4-2.91,16.88,16.88,0,0,0,.17-16.4,6.59,6.59,0,0,0-4.16-3.11v-9h.42a15.1,15.1,0,0,1,11.41,5Q78.81,304.21,79,313.21Z"/><path d="M94.81,304.77a10.34,10.34,0,0,0-2.66,5.91h6.6v6.59H91.9q.24,5.75,4,8.06a9,9,0,0,0,2.85,1.16v8.26a20.69,20.69,0,0,1-11.08-4.58q-5.82-4.71-5.83-15.3,0-9.93,5.27-15.23a17.89,17.89,0,0,1,11.64-5.21v8.33A7.07,7.07,0,0,0,94.81,304.77Z"/><path d="M119.74,315.31v.84c0,.36,0,.74,0,1.12h-16.9v-6.59h6.53a7.88,7.88,0,0,0-6.53-7.9v-8.35a20.82,20.82,0,0,1,6.92,1.71,15.55,15.55,0,0,1,6.61,5.65,18.76,18.76,0,0,1,3,7.9A40.31,40.31,0,0,1,119.74,315.31Z"/><path d="M137.78,295.63v7.5a6.64,6.64,0,0,0-4.24,3.94,14.92,14.92,0,0,0-1,5.82v20.68h-10V295.43h9.65V301a16.72,16.72,0,0,1,3.63-4.24A9.87,9.87,0,0,1,137.78,295.63Z"/><path d="M157.07,307.84v25.73H146.83V310.33a10.61,10.61,0,0,0-.8-4.63,5.16,5.16,0,0,0-4.17-2.84v-8.32a17.55,17.55,0,0,1,1.81-.09,14.71,14.71,0,0,1,9.65,3.1Q157.07,300.65,157.07,307.84Z"/><polygon points="256.3 179.49 179.49 256.38 0 256.38 0 76.89 76.89 0 76.89 179.49 256.3 179.49"/><polygon class="cls-1" points="256.38 0 256.38 179.49 179.49 179.49 179.49 76.89 76.89 76.89 76.89 0 256.38 0"/></g></g></svg>