<?xml version="1.0" encoding="utf-8"?>
<!-- Generator: Adobe Illustrator 25.4.1, SVG Export Plug-In . SVG Version: 6.00 Build 0)  -->
<svg version="1.1" id="Layer_1" xmlns="http://www.w3.org/2000/svg" xmlns:xlink="http://www.w3.org/1999/xlink" x="0px" y="0px"
	 viewBox="0 0 200 200" style="enable-background:new 0 0 200 200;" xml:space="preserve">
<style type="text/css">
	.st0{fill:#323F48;}
	.st1{fill:#E0B135;stroke:#E0B135;stroke-width:8.0899;stroke-miterlimit:10;}
</style>
<rect class="st0" width="200" height="200"/>
<g id="Layer_2_00000032635330943126778930000000508492149696336263_">
	<g id="Layer_1-2">
		<path class="st1" d="M38,100.1C36.2,64,67.1,33.4,107,31.8c1.9-0.1,3.7-0.1,5.6,0c13.1-0.9,26,4,34.4,13.1v-7.5
			c-0.3-1.7,1-3.4,3-3.6c1.9-0.3,3.7,0.9,4,2.7c0.1,0.3,0.1,0.6,0,0.9v35.2c0.3,1.7-1,3.4-3,3.6c-1.9,0.3-3.7-0.9-4-2.7
			c-0.1-0.3-0.1-0.6,0-0.9v-16c0-5.6-12.9-19.1-32.7-19.1c-16.3,0-24.3,11.3-24.3,62.8c0,54.3,8,62.7,24,62.7
			c19.3-0.2,36.1-12,41.1-28.9c0.6-1.9,1.4-3.3,3.7-3.3c1.7-0.1,3.2,1,3.3,2.5c0,0.2,0,0.4,0,0.6c0,1.3-0.2,2.6-0.6,3.9
			c-6.9,19-26.8,31.5-48.9,30.8C73.5,168.2,38,145.9,38,100.1z M94.4,161.2c-8.5-8-12.1-25.4-12.1-61.1S86.3,47,95.5,39
			c-30.3,7.4-51,32.7-49.9,61.1c0,35.9,24.3,55.3,48.8,61V161.2z"/>
	</g>
</g>
</svg>
